<svg width="29" height="26" viewBox="0 0 29 26" fill="none" xmlns="http://www.w3.org/2000/svg">
<path d="M24.245 7.20682H27.7079V10.9386H24.245V18.0696C24.245 20.4966 24.3953 20.4894 24.6959 20.7737C24.9964 21.058 25.5975 21.2002 26.4992 21.2002C26.7998 21.2357 27.0628 21.2002 27.3633 21.1647C27.6263 21.1647 27.9897 20.9633 28.1776 20.7737V24.6832C27.7079 24.8839 27.1755 25.1097 26.6495 25.1097C26.086 25.1453 25.56 25.1453 25.034 25.1453C24.9988 25.1453 24.4039 25.1453 24.1534 25.1097C23.5433 25.0231 22.636 24.701 22.0724 24.3811C21.7593 24.2034 20.9453 23.4038 20.8514 23.0483C20.5696 22.6041 20.4129 21.7333 20.4129 20.8093V10.9386H17.0943V7.20682H20.4129V0.987122H24.245V7.20682Z" fill="#10239E"/>
<path fill-rule="evenodd" clip-rule="evenodd" d="M0.563495 10.9386H3.19341V24.7188H7.40131V10.9386H10.5196L10.5196 7.20682H7.40129L7.40131 6.88695C7.40131 6.14059 7.55159 5.43181 7.85215 5.11194C8.15271 4.79207 8.67869 4.61437 9.4301 4.61437C10.1064 4.61437 10.7451 4.64991 11.3837 4.72099V0.987126L9.95608 0.987122L8.5472 0.987126C6.76258 0.987126 5.35369 1.84808 4.50837 2.67533C3.41883 3.74156 3.19341 4.96773 3.19341 6.56708L3.19339 7.20682H0.563477L0.563495 10.9386ZM15.9673 12.538H11.8722V24.7188H15.9673V12.538Z" fill="#10239E"/>
<path d="M15.9673 9.1083C15.9673 10.1909 15.0775 11.0686 13.9949 11.0686C12.9122 11.0686 12.0224 10.1909 12.0224 9.10829C12.0224 8.02566 12.9122 7.14801 13.9949 7.14801C15.0775 7.14801 15.9673 8.02566 15.9673 9.1083Z" fill="#40A9FF"/>
</svg>
