<svg width="133" height="31" viewBox="0 0 133 31" fill="none" xmlns="http://www.w3.org/2000/svg">
<path d="M86.2628 13.1459H90.9235V16.1987H90.9926C91.1997 15.7217 91.5104 15.2447 91.9247 14.7995C92.3045 14.3543 92.7533 14.0045 93.2711 13.6865C93.7545 13.3685 94.3068 13.1459 94.8937 12.9551C95.4461 12.7961 96.0675 12.7325 96.689 12.7007C96.9997 12.7007 97.3449 12.7643 97.7592 12.8597V17.0573C97.5175 17.0255 97.2413 16.9937 96.9306 16.9619C96.5854 16.9301 96.2747 16.8983 95.9985 16.8983C95.1009 16.8983 94.3414 17.0573 93.7199 17.3117C93.0985 17.5979 92.5807 17.9795 92.2009 18.4565C91.8211 18.9335 91.545 19.4741 91.4069 20.1101C91.2342 20.7461 91.1652 21.4457 91.1652 22.1771V29.6608H86.2628V13.1459Z" fill="#10239E"/>
<path d="M79.6613 19.6013C79.4196 18.4565 79.0054 17.5979 78.4185 16.9937C77.8316 16.4213 76.9339 16.1351 75.7601 16.1033C74.9661 16.1033 74.3101 16.2305 73.7923 16.4849C73.2744 16.7393 72.8602 17.0255 72.5494 17.3753C72.2387 17.7569 72.0316 18.1385 71.8935 18.5201C71.7554 18.9335 71.6864 19.2833 71.6864 19.6013H79.6613ZM71.6864 22.4633C71.7554 23.9261 72.1352 25.0074 72.8947 25.6434C73.6197 26.3112 74.6899 26.6292 76.0709 26.6292C77.0375 26.6292 77.9006 26.4066 78.6256 25.9614C79.3161 25.5162 79.7649 25.0074 79.9375 24.4985H84.2529C83.5625 26.4702 82.4922 27.9012 81.0768 28.728C79.6268 29.5866 77.9006 30 75.8982 30C74.4828 30 73.2054 29.8092 72.1006 29.3958C70.9614 28.9824 69.9947 28.3782 69.2352 27.615C68.4411 26.8518 67.8197 25.9614 67.4054 24.8802C66.9911 23.8307 66.784 22.6541 66.784 21.3821C66.784 20.1737 66.9911 19.0289 67.44 17.9477C67.8542 16.8983 68.4757 15.9761 69.3042 15.2129C70.0983 14.4497 71.0649 13.8137 72.1697 13.3685C73.2744 12.9233 74.5173 12.7007 75.8982 12.7007C77.4173 12.7007 78.7292 12.9869 79.8685 13.5275C80.9732 14.0681 81.9053 14.7995 82.6303 15.6899C83.3553 16.6121 83.8732 17.6615 84.2184 18.8063C84.5291 19.9829 84.6327 21.1913 84.5637 22.4633H71.6864Z" fill="#10239E"/>
<path d="M60.7616 29.6608H55.3069L49.2277 13.1459H54.3717L58.1347 24.3714H58.2038L61.9669 13.1459H66.8347L60.7616 29.6608Z" fill="#10239E"/>
<path d="M44.3177 19.6013C44.076 18.4565 43.6617 17.5979 43.0748 16.9937C42.4879 16.4213 41.5903 16.1351 40.4165 16.1033C39.6225 16.1033 38.9665 16.2305 38.4487 16.4849C37.9308 16.7393 37.5165 17.0255 37.2058 17.3753C36.8951 17.7569 36.688 18.1385 36.5499 18.5201C36.4118 18.9335 36.3427 19.2833 36.3427 19.6013H44.3177ZM36.3427 22.4633C36.4118 23.9261 36.7915 25.0074 37.551 25.6434C38.276 26.3112 39.3463 26.6292 40.7272 26.6292C41.6939 26.6292 42.557 26.4066 43.282 25.9614C43.9724 25.5162 44.4212 25.0074 44.5939 24.4985H48.9093C48.2188 26.4702 47.1486 27.9012 45.7331 28.728C44.2831 29.5866 42.557 30 40.5546 30C39.1391 30 37.8618 29.8092 36.757 29.3958C35.6177 28.9824 34.6511 28.3782 33.8915 27.615C33.0975 26.8518 32.4761 25.9614 32.0618 24.8802C31.6475 23.8307 31.4404 22.6541 31.4404 21.3821C31.4404 20.1737 31.6475 19.0289 32.0963 17.9477C32.5106 16.8983 33.132 15.9761 33.9606 15.2129C34.7546 14.4497 35.7213 13.8137 36.826 13.3685C37.9308 12.9233 39.1736 12.7007 40.5546 12.7007C42.0736 12.7007 43.3855 12.9869 44.5248 13.5275C45.6296 14.0681 46.5617 14.7995 47.2867 15.6899C48.0117 16.6121 48.5295 17.6615 48.8748 18.8063C49.1855 19.9829 49.2891 21.1913 49.22 22.4633H36.3427Z" fill="#10239E"/>
<path d="M24.8571 6.12863H29.6904V29.6608H24.8571V6.12863Z" fill="#10239E"/>
<path d="M17.5473 14.2247C17.4435 13.6577 17.2358 13.1536 16.9243 12.6811C16.5782 12.2086 16.1975 11.799 15.713 11.421C15.2285 11.0745 14.6747 10.791 14.0517 10.6019C13.4287 10.4129 12.8057 10.3184 12.1482 10.2869C10.9022 10.2869 9.86388 10.5074 9.03324 10.9485C8.16799 11.3895 7.47579 11.9565 6.95663 12.6811C6.40287 13.4056 6.02216 14.2247 5.77989 15.1383C5.53762 16.0833 5.43379 17.0284 5.43379 18.005C5.43379 18.95 5.53762 19.8951 5.77989 20.7772C6.02216 21.6592 6.40287 22.4783 6.95663 23.1713C7.47579 23.8959 8.16799 24.4629 9.03324 24.904C9.86388 25.345 10.9022 25.534 12.1482 25.534C13.8094 25.534 15.09 25.093 16.0245 24.1479C16.959 23.2343 17.5473 22.0058 17.755 20.4936H23.0157C22.8773 21.9112 22.4966 23.1713 21.9428 24.3054C21.3544 25.4395 20.593 26.4161 19.6585 27.2036C18.6895 28.0227 17.5819 28.6212 16.336 29.0307C15.0554 29.4718 13.671 29.6608 12.1482 29.6608C10.2446 29.6608 8.5487 29.3773 7.02585 28.7787C5.50301 28.1802 4.25704 27.3611 3.21874 26.2901C2.18044 25.2505 1.3844 24.0219 0.830643 22.6043C0.276881 21.1867 0 19.6431 0 18.005C0 16.3354 0.276881 14.7917 0.830643 13.3426C1.3844 11.8935 2.18044 10.6334 3.21874 9.56237C4.25704 8.5228 5.50301 7.67224 7.02585 7.04219C8.5487 6.44365 10.2446 6.16013 12.1482 6.12863C13.4979 6.12863 14.7785 6.31764 15.9899 6.66417C17.2012 7.04219 18.2741 7.54623 19.2432 8.23928C20.2123 8.93233 21.0083 9.75138 21.6313 10.7595C22.2543 11.7675 22.635 12.9331 22.8081 14.2247H17.5473Z" fill="#10239E"/>
<path d="M127.753 8.2545H131.995V12.8163H127.753V21.5332C127.753 24.5 127.937 24.4912 128.305 24.8388C128.673 25.1863 129.41 25.3601 130.514 25.3601C130.883 25.4036 131.205 25.3601 131.573 25.3167C131.895 25.3167 132.341 25.0706 132.571 24.8388V29.6178C131.995 29.8631 131.343 30.1392 130.699 30.1392C130.008 30.1826 129.364 30.1826 128.719 30.1826C128.676 30.1826 127.947 30.1826 127.64 30.1392C126.893 30.0333 125.781 29.6395 125.091 29.2485C124.707 29.0313 123.71 28.0538 123.595 27.6193C123.249 27.0762 123.057 26.0118 123.057 24.8822V12.8163H118.991V8.2545H123.057V0.651489H127.753V8.2545Z" fill="#10239E"/>
<path fill-rule="evenodd" clip-rule="evenodd" d="M98.7376 12.8163H101.96V29.6613H107.115V12.8163H110.936L110.936 8.2545H107.115L107.115 7.86349C107.115 6.95113 107.299 6.08472 107.668 5.69371C108.036 5.3027 108.68 5.08547 109.601 5.08547C110.43 5.08547 111.212 5.12891 111.995 5.2158V0.651495L110.245 0.651489L108.519 0.651495C106.333 0.651495 104.607 1.70393 103.571 2.71517C102.236 4.01854 101.96 5.51742 101.96 7.47248L101.96 8.2545H98.7376L98.7376 12.8163ZM117.611 14.7714H112.593V29.6613H117.611V14.7714Z" fill="#10239E"/>
<path d="M117.611 10.5789C117.611 11.9023 116.517 12.9751 115.194 12.9751C113.87 12.9751 112.777 11.9023 112.777 10.5789C112.777 9.25545 113.87 8.18261 115.194 8.18261C116.517 8.18261 117.611 9.25546 117.611 10.5789Z" fill="#40A9FF"/>
</svg>
