<svg width="72" height="17" viewBox="0 0 72 17" fill="none" xmlns="http://www.w3.org/2000/svg">
<path d="M46.6976 6.80696H49.2207V8.47213H49.258C49.3702 8.21195 49.5384 7.95176 49.7627 7.70893C49.9682 7.46609 50.2112 7.27529 50.4915 7.10183C50.7532 6.92838 51.0522 6.80696 51.37 6.70288C51.669 6.61616 52.0054 6.58146 52.3418 6.56412C52.51 6.56412 52.6969 6.59881 52.9212 6.65085V8.94046C52.7904 8.92312 52.6408 8.90577 52.4726 8.88843C52.2857 8.87108 52.1175 8.85373 51.968 8.85373C51.4821 8.85373 51.0709 8.94046 50.7345 9.07923C50.3981 9.23534 50.1178 9.44348 49.9122 9.70367C49.7066 9.96385 49.5571 10.2587 49.4823 10.6056C49.3889 10.9525 49.3515 11.3342 49.3515 11.7331V15.8151H46.6976V6.80696Z" fill="#10239E"/>
<path d="M43.1235 10.3281C42.9927 9.70365 42.7684 9.23532 42.4507 8.90576C42.1329 8.59353 41.647 8.43743 41.0116 8.42008C40.5817 8.42008 40.2266 8.48946 39.9463 8.62823C39.6659 8.76699 39.4417 8.9231 39.2735 9.1139C39.1053 9.32205 38.9931 9.5302 38.9184 9.73834C38.8436 9.96383 38.8062 10.1546 38.8062 10.3281H43.1235ZM38.8062 11.8892C38.8436 12.6871 39.0492 13.2768 39.4604 13.6238C39.8528 13.988 40.4322 14.1615 41.1798 14.1615C41.7031 14.1615 42.1703 14.04 42.5628 13.7972C42.9366 13.5544 43.1796 13.2768 43.273 12.9993H45.6092C45.2354 14.0747 44.656 14.8553 43.8898 15.3063C43.1048 15.7746 42.1703 16.0001 41.0863 16.0001C40.3201 16.0001 39.6286 15.896 39.0305 15.6705C38.4137 15.445 37.8904 15.1155 37.4793 14.6992C37.0494 14.2829 36.713 13.7972 36.4887 13.2075C36.2645 12.6351 36.1523 11.9933 36.1523 11.2994C36.1523 10.6403 36.2645 10.0159 36.5074 9.42612C36.7317 8.85372 37.0681 8.3507 37.5166 7.9344C37.9465 7.51811 38.4698 7.1712 39.0679 6.92836C39.6659 6.68552 40.3388 6.5641 41.0863 6.5641C41.9087 6.5641 42.6189 6.72021 43.2356 7.01509C43.8337 7.30996 44.3383 7.70891 44.7308 8.19459C45.1233 8.69761 45.4036 9.27001 45.5905 9.89445C45.7587 10.5362 45.8148 11.1954 45.7774 11.8892H38.8062Z" fill="#10239E"/>
<path d="M32.8928 15.8151H29.9399L26.6489 6.80698H29.4336L31.4708 12.93H31.5082L33.5453 6.80698H36.1805L32.8928 15.8151Z" fill="#10239E"/>
<path d="M23.9904 10.3281C23.8596 9.70362 23.6353 9.23529 23.3176 8.90572C22.9999 8.5935 22.5139 8.43739 21.8785 8.42005C21.4486 8.42005 21.0935 8.48943 20.8132 8.62819C20.5329 8.76696 20.3086 8.92307 20.1404 9.11387C19.9722 9.32202 19.86 9.53016 19.7853 9.73831C19.7105 9.9638 19.6731 10.1546 19.6731 10.3281H23.9904ZM19.6731 11.8892C19.7105 12.6871 19.9161 13.2768 20.3273 13.6237C20.7198 13.988 21.2991 14.1614 22.0467 14.1614C22.57 14.1614 23.0373 14.04 23.4297 13.7972C23.8035 13.5543 24.0465 13.2768 24.1399 12.9993H26.4761C26.1023 14.0747 25.5229 14.8553 24.7567 15.3062C23.9717 15.7746 23.0372 16.0001 21.9533 16.0001C21.187 16.0001 20.4955 15.896 19.8974 15.6705C19.2807 15.445 18.7574 15.1154 18.3462 14.6991C17.9163 14.2829 17.5799 13.7972 17.3557 13.2074C17.1314 12.635 17.0192 11.9932 17.0192 11.2994C17.0192 10.6403 17.1314 10.0158 17.3743 9.42609C17.5986 8.85369 17.935 8.35067 18.3836 7.93437C18.8134 7.51808 19.3367 7.17117 19.9348 6.92833C20.5329 6.68549 21.2057 6.56407 21.9533 6.56407C22.7756 6.56407 23.4858 6.72018 24.1025 7.01506C24.7006 7.30993 25.2052 7.70888 25.5977 8.19456C25.9902 8.69758 26.2705 9.26998 26.4574 9.89442C26.6256 10.5362 26.6817 11.1953 26.6443 11.8892H19.6731Z" fill="#10239E"/>
<path d="M13.4556 2.97934H16.0722V15.8151H13.4556V2.97934Z" fill="#10239E"/>
<path d="M9.49833 7.39542C9.44212 7.08612 9.32971 6.81119 9.16108 6.55345C8.97372 6.2957 8.76762 6.07232 8.50531 5.86613C8.243 5.67711 7.94322 5.52247 7.60596 5.41937C7.26871 5.31627 6.93146 5.26472 6.57547 5.24754C5.90096 5.24754 5.33887 5.36782 4.8892 5.60838C4.42079 5.84894 4.04607 6.15824 3.76502 6.55345C3.46524 6.94866 3.25914 7.39542 3.12799 7.89372C2.99683 8.40922 2.94062 8.92471 2.94062 9.45738C2.94062 9.97287 2.99683 10.4884 3.12799 10.9695C3.25914 11.4506 3.46524 11.8974 3.76502 12.2754C4.04607 12.6706 4.42079 12.9799 4.8892 13.2205C5.33887 13.461 5.90096 13.5641 6.57547 13.5641C7.47481 13.5641 8.16805 13.3236 8.67393 12.8081C9.17981 12.3098 9.49833 11.6396 9.61075 10.8148H12.4587C12.3837 11.5881 12.1776 12.2754 11.8778 12.894C11.5593 13.5126 11.1471 14.0453 10.6412 14.4748C10.1166 14.9216 9.51707 15.2481 8.84256 15.4714C8.14932 15.712 7.39987 15.8151 6.57547 15.8151C5.54497 15.8151 4.62689 15.6605 3.80249 15.334C2.9781 15.0075 2.30359 14.5607 1.7415 13.9765C1.17941 13.4095 0.748476 12.7393 0.448695 11.9661C0.148914 11.1929 -0.000976562 10.3509 -0.000976562 9.45738C-0.000976562 8.54668 0.148914 7.70471 0.448695 6.91429C0.748476 6.12387 1.17941 5.43655 1.7415 4.85233C2.30359 4.28529 2.9781 3.82134 3.80249 3.47768C4.62689 3.15121 5.54497 2.99656 6.57547 2.97938C7.30618 2.97938 7.99943 3.08247 8.6552 3.27149C9.31097 3.47768 9.89179 3.75261 10.4164 4.13064C10.941 4.50867 11.372 4.95542 11.7092 5.50528C12.0465 6.05514 12.2526 6.69091 12.3463 7.39542H9.49833Z" fill="#10239E"/>
<path d="M69.1591 4.13904H71.456V6.62729H69.1591V11.382C69.1591 13.0002 69.2588 12.9954 69.4582 13.185C69.6575 13.3746 70.0562 13.4694 70.6543 13.4694C70.8537 13.4931 71.0281 13.4694 71.2274 13.4457C71.4019 13.4457 71.6429 13.3114 71.7675 13.185V15.7918C71.456 15.9256 71.1029 16.0761 70.754 16.0761C70.3802 16.0998 70.0313 16.0998 69.6824 16.0998C69.6591 16.0998 69.2645 16.0998 69.0984 16.0761C68.6937 16.0184 68.0919 15.8036 67.7181 15.5903C67.5104 15.4718 66.9705 14.9386 66.9082 14.7017C66.7213 14.4054 66.6174 13.8248 66.6174 13.2087V6.62729H64.4163V4.13904H66.6174V-0.00805664H69.1591V4.13904Z" fill="#10239E"/>
<path fill-rule="evenodd" clip-rule="evenodd" d="M53.4524 6.6273H55.1967V15.8155H57.9877V6.6273H60.056L60.056 4.13904H57.9877L57.9877 3.92576C57.9877 3.42811 58.0874 2.95552 58.2868 2.74224C58.4861 2.52896 58.835 2.41048 59.3334 2.41048C59.7819 2.41048 60.2055 2.43418 60.6292 2.48157V-0.00805358L59.6822 -0.00805664L58.7478 -0.00805358C57.5641 -0.00805358 56.6296 0.566003 56.0689 1.11759C55.3463 1.82852 55.1967 2.64609 55.1967 3.71248L55.1967 4.13904H53.4524L53.4524 6.6273ZM63.6693 7.69369H60.9531V15.8155H63.6693V7.69369Z" fill="#10239E"/>
<path d="M63.6693 5.40689C63.6693 6.12875 63.0829 6.71393 62.361 6.71393C61.6392 6.71393 61.0528 6.12875 61.0528 5.40688C61.0528 4.68502 61.6392 4.09983 62.361 4.09983C63.0829 4.09983 63.6693 4.68502 63.6693 5.40689Z" fill="#40A9FF"/>
</svg>
