<svg width="24" height="25" viewBox="0 0 24 25" fill="none" xmlns="http://www.w3.org/2000/svg">
<path fill-rule="evenodd" clip-rule="evenodd" d="M22.4999 12.7273C22.4999 12.5284 22.4209 12.3376 22.2802 12.197C22.1396 12.0563 21.9488 11.9773 21.7499 11.9773H4.06038L8.78088 7.2583C8.85061 7.18856 8.90592 7.10578 8.94366 7.01467C8.9814 6.92356 9.00082 6.82591 9.00082 6.7273C9.00082 6.62868 8.9814 6.53103 8.94366 6.43992C8.90592 6.34881 8.85061 6.26603 8.78088 6.1963C8.71114 6.12656 8.62836 6.07125 8.53725 6.03351C8.44614 5.99577 8.34849 5.97635 8.24988 5.97635C8.15126 5.97635 8.05361 5.99577 7.9625 6.03351C7.87139 6.07125 7.78861 6.12656 7.71888 6.1963L1.71888 12.1963C1.64903 12.266 1.59362 12.3487 1.55581 12.4398C1.518 12.531 1.49854 12.6286 1.49854 12.7273C1.49854 12.8259 1.518 12.9236 1.55581 13.0147C1.59362 13.1059 1.64903 13.1886 1.71888 13.2583L7.71888 19.2583C7.78861 19.328 7.87139 19.3833 7.9625 19.4211C8.05361 19.4588 8.15126 19.4782 8.24988 19.4782C8.34849 19.4782 8.44614 19.4588 8.53725 19.4211C8.62836 19.3833 8.71114 19.328 8.78088 19.2583C8.85061 19.1886 8.90592 19.1058 8.94366 19.0147C8.9814 18.9236 9.00082 18.8259 9.00082 18.7273C9.00082 18.6287 8.9814 18.531 8.94366 18.4399C8.90592 18.3488 8.85061 18.266 8.78088 18.1963L4.06038 13.4773H21.7499C21.9488 13.4773 22.1396 13.3983 22.2802 13.2576C22.4209 13.117 22.4999 12.9262 22.4999 12.7273Z" fill="#FFFFD3"/>
</svg>
