<svg width="17" height="16" viewBox="0 0 17 16" fill="none" xmlns="http://www.w3.org/2000/svg">
<path fill-rule="evenodd" clip-rule="evenodd" d="M1.5 7.99999C1.5 7.86738 1.55268 7.74021 1.64645 7.64644C1.74021 7.55267 1.86739 7.49999 2 7.49999H13.793L10.646 4.35399C10.5521 4.2601 10.4994 4.13277 10.4994 3.99999C10.4994 3.86721 10.5521 3.73988 10.646 3.64599C10.7399 3.5521 10.8672 3.49936 11 3.49936C11.1328 3.49936 11.2601 3.5521 11.354 3.64599L15.354 7.64599C15.4006 7.69244 15.4375 7.74761 15.4627 7.80836C15.4879 7.8691 15.5009 7.93422 15.5009 7.99999C15.5009 8.06576 15.4879 8.13088 15.4627 8.19162C15.4375 8.25237 15.4006 8.30754 15.354 8.35399L11.354 12.354C11.2601 12.4479 11.1328 12.5006 11 12.5006C10.8672 12.5006 10.7399 12.4479 10.646 12.354C10.5521 12.2601 10.4994 12.1328 10.4994 12C10.4994 11.8672 10.5521 11.7399 10.646 11.646L13.793 8.49999H2C1.86739 8.49999 1.74021 8.44731 1.64645 8.35354C1.55268 8.25978 1.5 8.1326 1.5 7.99999V7.99999Z" fill="black"/>
</svg>
