<svg width="24" height="25" viewBox="0 0 24 25" fill="none" xmlns="http://www.w3.org/2000/svg">
<path fill-rule="evenodd" clip-rule="evenodd" d="M1.5 12.7273C1.5 12.5284 1.57902 12.3376 1.71967 12.197C1.86032 12.0563 2.05109 11.9773 2.25 11.9773H19.9395L15.219 7.2583C15.0782 7.11747 14.9991 6.92646 14.9991 6.7273C14.9991 6.52813 15.0782 6.33713 15.219 6.1963C15.3598 6.05547 15.5508 5.97635 15.75 5.97635C15.9492 5.97635 16.1402 6.05547 16.281 6.1963L22.281 12.1963C22.3508 12.266 22.4063 12.3487 22.4441 12.4398C22.4819 12.531 22.5013 12.6286 22.5013 12.7273C22.5013 12.8259 22.4819 12.9236 22.4441 13.0147C22.4063 13.1059 22.3508 13.1886 22.281 13.2583L16.281 19.2583C16.1402 19.3991 15.9492 19.4782 15.75 19.4782C15.5508 19.4782 15.3598 19.3991 15.219 19.2583C15.0782 19.1175 14.9991 18.9265 14.9991 18.7273C14.9991 18.5281 15.0782 18.3371 15.219 18.1963L19.9395 13.4773H2.25C2.05109 13.4773 1.86032 13.3983 1.71967 13.2576C1.57902 13.117 1.5 12.9262 1.5 12.7273Z" fill="#FFFFD3"/>
</svg>
