<svg width="33" height="32" viewBox="0 0 33 32" fill="none" xmlns="http://www.w3.org/2000/svg">
<path d="M0.504028 6C0.504028 4.93913 0.925456 3.92172 1.6756 3.17157C2.42575 2.42143 3.44316 2 4.50403 2H28.504C29.5649 2 30.5823 2.42143 31.3325 3.17157C32.0826 3.92172 32.504 4.93913 32.504 6V26C32.504 27.0609 32.0826 28.0783 31.3325 28.8284C30.5823 29.5786 29.5649 30 28.504 30H4.50403C3.44316 30 2.42575 29.5786 1.6756 28.8284C0.925456 28.0783 0.504028 27.0609 0.504028 26V6ZM2.50403 24V26C2.50403 26.5304 2.71474 27.0391 3.08981 27.4142C3.46489 27.7893 3.9736 28 4.50403 28H28.504C29.0345 28 29.5432 27.7893 29.9182 27.4142C30.2933 27.0391 30.504 26.5304 30.504 26V19L22.95 15.106C22.7625 15.012 22.5501 14.9795 22.343 15.0128C22.1359 15.0462 21.9446 15.1439 21.796 15.292L14.376 22.712L9.05603 19.168C8.86395 19.0401 8.63355 18.9826 8.40391 19.0052C8.17426 19.0278 7.95949 19.1291 7.79603 19.292L2.50403 24ZM12.504 11C12.504 10.2044 12.188 9.44129 11.6253 8.87868C11.0627 8.31607 10.2997 8 9.50403 8C8.70838 8 7.94532 8.31607 7.38271 8.87868C6.8201 9.44129 6.50403 10.2044 6.50403 11C6.50403 11.7956 6.8201 12.5587 7.38271 13.1213C7.94532 13.6839 8.70838 14 9.50403 14C10.2997 14 11.0627 13.6839 11.6253 13.1213C12.188 12.5587 12.504 11.7956 12.504 11Z" fill="black"/>
</svg>
