<svg width="17" height="16" viewBox="0 0 17 16" fill="none" xmlns="http://www.w3.org/2000/svg">
<path d="M13.1967 4.9349C13.4487 4.6829 13.5874 4.34823 13.5874 3.99223C13.5874 3.63623 13.4487 3.30156 13.1967 3.04956L12.1394 1.99223C11.8874 1.74023 11.5527 1.60156 11.1967 1.60156C10.8407 1.60156 10.5061 1.74023 10.2547 1.99156L3.16675 9.05756V12.0009H6.10875L13.1967 4.9349ZM11.1967 2.9349L12.2547 3.99156L11.1947 5.04756L10.1374 3.9909L11.1967 2.9349ZM4.50008 10.6676V9.6109L9.19341 4.93223L10.2507 5.98956L5.55808 10.6676H4.50008ZM3.16675 13.3342H13.8334V14.6676H3.16675V13.3342Z" fill="white"/>
</svg>
